<?xml version="1.0" encoding="utf-8"?>
<!-- Generator: Adobe Illustrator 27.0.1, SVG Export Plug-In . SVG Version: 6.00 Build 0)  -->
<svg version="1.1" id="Слой_1" xmlns="http://www.w3.org/2000/svg" xmlns:xlink="http://www.w3.org/1999/xlink" x="0px" y="0px"
	 viewBox="0 0 645.7 264.9" enable-background="new 0 0 645.7 264.9" xml:space="preserve">
<path fill="#EFEFEF" d="M575.5,260.1H71.9c-36.8,0-66.6-29.8-66.6-66.6V72.3c0-36.8,29.8-66.6,66.6-66.6h503.6
	c36.8,0,66.6,29.8,66.6,66.6v121.2C642.1,230.3,612.3,260.1,575.5,260.1z"/>
<g>
	<g>
		<g>
			<path d="M343.5,215.6v-64.4h40.4v11.2h-29.2v13.1h23.1v11.2h-23.1v17.7h29.2v11.2H343.5z"/>
			<path d="M436.2,186.6v29.1H425v-26.1c0-1.8-0.4-3.5-1.3-4.9c-0.9-1.5-2.1-2.7-3.6-3.5c-1.5-0.9-3.1-1.3-4.9-1.3
				c-1.8,0-3.5,0.4-4.9,1.3s-2.7,2.1-3.5,3.5c-0.9,1.5-1.3,3.1-1.3,4.9v26.1h-11.2l0-46h11.2l0,4.1c1.6-1.7,3.4-3,5.6-3.9
				s4.5-1.4,7-1.4c3.3,0,6.4,0.8,9.2,2.5c2.8,1.6,5,3.8,6.6,6.6C435.4,180.1,436.2,183.2,436.2,186.6z"/>
			<path d="M479.5,169.6h11.2v46.9c0,3.3-0.7,6.3-2,9s-3.2,5-5.5,7c-2.3,1.9-5,3.5-8,4.5c-3,1.1-6.2,1.6-9.5,1.6
				c-3.2,0-6.3-0.7-9.3-2c-3-1.3-5.6-3.1-7.9-5.4c-2.3-2.3-4-4.9-5.2-7.8l10.3-4.6c0.6,1.7,1.5,3.2,2.8,4.4c1.2,1.3,2.7,2.3,4.3,3
				c1.6,0.7,3.3,1.1,5.1,1.1c1.8,0,3.5-0.2,5.1-0.7c1.6-0.5,3.1-1.2,4.4-2.1c1.3-0.9,2.4-2.1,3.1-3.4c0.8-1.3,1.1-2.8,1.1-4.5V210
				c-1.4,2-3.3,3.7-5.4,4.9c-2.2,1.3-4.7,1.9-7.5,1.9c-3.3,0-6.4-0.6-9.3-1.9c-2.9-1.3-5.4-3-7.6-5.2c-2.2-2.2-3.9-4.8-5.2-7.7
				c-1.2-2.9-1.9-6-1.9-9.4c0-3.3,0.6-6.5,1.9-9.4c1.2-2.9,3-5.5,5.2-7.7s4.7-4,7.6-5.2c2.9-1.3,6-1.9,9.3-1.9
				c2.9,0,5.4,0.6,7.5,1.9s4,2.9,5.4,4.9V169.6z M466.7,206c2.4,0,4.5-0.6,6.3-1.8s3.3-2.8,4.3-4.9c1-2,1.6-4.3,1.6-6.7
				c0-2.5-0.5-4.7-1.6-6.7c-1.1-2-2.5-3.6-4.3-4.9c-1.8-1.2-3.9-1.8-6.2-1.8c-2.3,0-4.4,0.6-6.3,1.8c-1.9,1.2-3.4,2.8-4.6,4.9
				c-1.1,2-1.7,4.3-1.7,6.8s0.6,4.7,1.7,6.8c1.1,2,2.7,3.6,4.6,4.8C462.3,205.4,464.4,206,466.7,206z"/>
			<path d="M507.5,163.7c-1.7,0-3.1-0.5-4.2-1.6c-1.1-1.1-1.7-2.5-1.7-4.1c0-1.6,0.6-3,1.7-4.1c1.1-1.1,2.5-1.7,4.1-1.7
				c1.6,0,3,0.6,4.1,1.7c1.1,1.1,1.7,2.5,1.7,4.1c0,1.7-0.6,3-1.7,4.1C510.5,163.2,509.1,163.7,507.5,163.7z M501.8,169.6H513v46
				h-11.2V169.6z"/>
			<path d="M566.2,186.6v29.1h-11.2v-26.1c0-1.8-0.4-3.5-1.3-4.9c-0.9-1.5-2.1-2.7-3.6-3.5c-1.5-0.9-3.1-1.3-4.9-1.3
				s-3.5,0.4-4.9,1.3s-2.7,2.1-3.5,3.5c-0.9,1.5-1.3,3.1-1.3,4.9v26.1h-11.2l0-46h11.2l0,4.1c1.6-1.7,3.4-3,5.6-3.9
				c2.2-1,4.5-1.4,7-1.4c3.3,0,6.4,0.8,9.2,2.5c2.8,1.6,5,3.8,6.6,6.6C565.4,180.1,566.2,183.2,566.2,186.6z"/>
			<path d="M595.6,216.8c-4.2,0-8.1-1.1-11.6-3.3c-3.5-2.2-6.3-5.1-8.3-8.8c-2.1-3.7-3.1-7.7-3.1-12.2c0-3.3,0.6-6.5,1.8-9.4
				c1.2-2.9,2.8-5.5,4.9-7.7s4.5-4,7.3-5.2c2.8-1.3,5.8-1.9,8.9-1.9c3.6,0,6.9,0.8,9.9,2.3c3,1.5,5.5,3.6,7.6,6.2
				c2.1,2.6,3.6,5.6,4.6,9c1,3.4,1.2,6.9,0.6,10.6h-33.6c0.4,1.7,1.1,3.3,2.1,4.6s2.2,2.5,3.7,3.3c1.5,0.8,3.2,1.2,5.1,1.3
				c2,0,3.7-0.4,5.4-1.4c1.6-1,3-2.3,4-3.9l11.5,2.7c-1.9,4.1-4.7,7.4-8.4,10C604.4,215.5,600.2,216.8,595.6,216.8z M584.3,188h22.6
				c-0.3-1.8-1.1-3.5-2.1-5s-2.4-2.7-4-3.6c-1.6-0.9-3.3-1.3-5.2-1.3s-3.5,0.4-5.1,1.3c-1.6,0.9-2.9,2.1-4,3.5
				S584.7,186.2,584.3,188z"/>
		</g>
	</g>
	<g>
		<g>
			<path d="M302.6,138.6c-4.4,0-8.4-0.9-12.3-2.6c-3.8-1.7-7.2-4.1-10.1-7.2c-2.9-3.1-5.2-6.6-6.8-10.6c-1.6-4-2.5-8.3-2.5-12.9
				c0-4.6,0.8-9,2.5-13c1.6-4,3.9-7.6,6.8-10.6c2.9-3.1,6.3-5.4,10.1-7.2c3.8-1.7,7.9-2.6,12.3-2.6c5.2,0,10,1.2,14.4,3.6
				c4.4,2.4,8,5.6,10.9,9.6l-10,5.4c-1.8-2.2-4.1-4-6.7-5.4s-5.5-2-8.5-2c-2.8,0-5.5,0.6-8,1.7c-2.5,1.2-4.7,2.7-6.5,4.8
				c-1.9,2-3.3,4.4-4.4,7.1c-1,2.7-1.6,5.5-1.6,8.6c0,3.1,0.5,5.9,1.6,8.6c1.1,2.7,2.5,5,4.4,7.1c1.9,2,4,3.6,6.5,4.8
				s5.1,1.7,7.9,1.7c3.1,0,5.9-0.7,8.6-2c2.7-1.4,4.9-3.2,6.7-5.4l10,5.4c-2.9,4-6.5,7.2-10.9,9.6
				C312.6,137.4,307.8,138.6,302.6,138.6z"/>
			<path d="M372.7,91.4h11.2v46h-11.2l-0.5-5.7c-1.3,2.1-2.9,3.7-5,5c-2.1,1.3-4.5,1.9-7.3,1.9c-3.4,0-6.6-0.6-9.6-1.9
				s-5.6-3.1-7.8-5.3c-2.3-2.3-4-4.9-5.3-7.9c-1.3-3-1.9-6.2-1.9-9.6c0-3.3,0.6-6.4,1.8-9.2c1.2-2.9,2.9-5.4,5.1-7.6
				c2.2-2.2,4.7-3.9,7.5-5.1c2.9-1.2,5.9-1.8,9.2-1.8c3,0,5.8,0.7,8.2,2c2.4,1.3,4.5,3.1,6.1,5.2L372.7,91.4z M359.6,127.8
				c2.4,0,4.5-0.6,6.3-1.8c1.8-1.2,3.3-2.8,4.3-4.9c1-2,1.6-4.3,1.6-6.7c0-2.5-0.5-4.7-1.6-6.8c-1-2-2.5-3.7-4.3-4.9
				c-1.9-1.2-4-1.8-6.3-1.8c-2.4,0-4.5,0.6-6.5,1.8c-1.9,1.2-3.5,2.8-4.6,4.9c-1.2,2-1.7,4.3-1.7,6.8s0.6,4.7,1.7,6.8
				c1.2,2,2.7,3.6,4.7,4.8C355.1,127.2,357.2,127.8,359.6,127.8z"/>
			<path d="M427.9,68.4h11.2v69h-11.2v-5.8c-1.5,2.1-3.3,3.7-5.6,5s-4.8,1.9-7.8,1.9c-3.3,0-6.5-0.6-9.4-1.9c-2.9-1.3-5.5-3-7.7-5.2
				c-2.2-2.2-4-4.8-5.2-7.7c-1.3-2.9-1.9-6-1.9-9.4c0-3.3,0.6-6.5,1.9-9.4c1.3-2.9,3-5.5,5.2-7.7s4.8-4,7.7-5.2s6-1.9,9.4-1.9
				c2.9,0,5.5,0.6,7.8,1.9c2.2,1.3,4.1,3,5.6,5V68.4z M414.7,127.8c2.4,0,4.5-0.6,6.3-1.8c1.8-1.2,3.3-2.8,4.3-4.9
				c1-2,1.6-4.3,1.6-6.7c0-2.5-0.5-4.7-1.6-6.8c-1-2-2.5-3.7-4.3-4.9c-1.9-1.2-4-1.8-6.3-1.8s-4.5,0.6-6.5,1.8
				c-1.9,1.2-3.5,2.8-4.6,4.9c-1.2,2-1.7,4.3-1.7,6.8s0.6,4.7,1.7,6.8c1.2,2,2.7,3.6,4.7,4.8C410.2,127.2,412.3,127.8,414.7,127.8z"
				/>
			<path d="M470.4,138.6c-4.2,0-8.1-1.1-11.6-3.3c-3.5-2.2-6.3-5.1-8.3-8.8c-2.1-3.7-3.1-7.7-3.1-12.2c0-3.3,0.6-6.5,1.8-9.4
				c1.2-2.9,2.8-5.5,4.9-7.7s4.5-4,7.3-5.2c2.8-1.3,5.8-1.9,8.9-1.9c3.6,0,6.9,0.8,9.9,2.3c3,1.5,5.5,3.6,7.6,6.2
				c2.1,2.6,3.6,5.6,4.6,9c1,3.4,1.2,6.9,0.6,10.6h-33.6c0.4,1.7,1.1,3.3,2.1,4.6s2.2,2.5,3.7,3.3c1.5,0.8,3.2,1.2,5.1,1.3
				c2,0,3.7-0.4,5.4-1.4c1.6-1,3-2.3,4-3.9l11.5,2.7c-1.9,4.1-4.7,7.4-8.4,10C479.1,137.3,475,138.6,470.4,138.6z M459.1,109.8h22.6
				c-0.3-1.8-1.1-3.5-2.1-5s-2.4-2.7-4-3.6c-1.6-0.9-3.3-1.3-5.2-1.3s-3.5,0.4-5.1,1.3c-1.6,0.9-2.9,2.1-4,3.5
				S459.5,108,459.1,109.8z"/>
		</g>
	</g>
	<g>
		<g>
			<polygon fill="#D8193D" points="78.7,155.5 113.2,72.6 192,113.8 158.9,192.6 			"/>
			<polygon fill="#EF5B74" points="104.5,119.8 117.4,171 169.2,155.8 153.7,105 			"/>
			
				<ellipse transform="matrix(0.4515 -0.8923 0.8923 0.4515 -44.9817 195.3667)" fill="none" stroke="#000000" stroke-width="9.6294" stroke-miterlimit="10" cx="136.4" cy="134.3" rx="47.7" ry="109.9"/>
			
				<ellipse transform="matrix(0.9595 -0.2816 0.2816 0.9595 -32.287 43.8445)" fill="none" stroke="#000000" stroke-width="10" stroke-miterlimit="10" cx="136.4" cy="134.3" rx="26.6" ry="109.9"/>
			
				<ellipse transform="matrix(0.9608 -0.2771 0.2771 0.9608 -31.8625 43.0571)" fill="none" stroke="#000000" stroke-width="10" stroke-miterlimit="10" cx="136.4" cy="134.3" rx="109.9" ry="26.6"/>
			
				<ellipse transform="matrix(0.3854 -0.9228 0.9228 0.3854 -40.0508 208.4154)" fill="none" stroke="#000000" stroke-width="9.6294" stroke-miterlimit="10" cx="136.4" cy="134.3" rx="109.9" ry="47.7"/>
		</g>
	</g>
</g>
</svg>
