<?xml version="1.0" encoding="utf-8"?>
<!-- Generator: Adobe Illustrator 27.0.1, SVG Export Plug-In . SVG Version: 6.00 Build 0)  -->
<svg version="1.1" id="Слой_1" xmlns="http://www.w3.org/2000/svg" xmlns:xlink="http://www.w3.org/1999/xlink" x="0px" y="0px"
	 viewBox="0 0 598.1 223.9" enable-background="new 0 0 598.1 223.9" xml:space="preserve">
<g>
	<g>
		<g>
			<path d="M320.8,193.1v-64.4h40.4v11.2H332V153h23.1v11.2H332v17.7h29.2v11.2H320.8z"/>
			<path d="M413.4,164v29.1h-11.2V167c0-1.8-0.4-3.5-1.3-4.9c-0.9-1.5-2.1-2.7-3.6-3.5c-1.5-0.9-3.1-1.3-4.9-1.3
				c-1.8,0-3.5,0.4-4.9,1.3c-1.5,0.9-2.7,2.1-3.5,3.5c-0.9,1.5-1.3,3.1-1.3,4.9v26.1h-11.2l0-46h11.2l0,4.1c1.6-1.7,3.4-3,5.6-3.9
				c2.2-1,4.5-1.4,7-1.4c3.3,0,6.4,0.8,9.2,2.5c2.8,1.6,5,3.8,6.6,6.6C412.6,157.6,413.4,160.6,413.4,164z"/>
			<path d="M456.8,147.1H468V194c0,3.3-0.7,6.3-2,9s-3.2,5-5.5,7c-2.3,1.9-5,3.5-8,4.5c-3,1.1-6.2,1.6-9.5,1.6c-3.2,0-6.3-0.7-9.3-2
				c-3-1.3-5.6-3.1-7.9-5.4c-2.3-2.3-4-4.9-5.2-7.8l10.3-4.6c0.6,1.7,1.5,3.2,2.8,4.4c1.2,1.3,2.7,2.3,4.3,3
				c1.6,0.7,3.3,1.1,5.1,1.1c1.8,0,3.5-0.2,5.1-0.7c1.6-0.5,3.1-1.2,4.4-2.1c1.3-0.9,2.4-2.1,3.1-3.4c0.8-1.3,1.1-2.8,1.1-4.5v-6.5
				c-1.4,2-3.3,3.7-5.4,4.9c-2.2,1.3-4.7,1.9-7.5,1.9c-3.3,0-6.4-0.6-9.3-1.9c-2.9-1.3-5.4-3-7.6-5.2c-2.2-2.2-3.9-4.8-5.2-7.7
				c-1.2-2.9-1.9-6-1.9-9.4c0-3.3,0.6-6.5,1.9-9.4c1.2-2.9,3-5.5,5.2-7.7c2.2-2.2,4.7-4,7.6-5.2c2.9-1.3,6-1.9,9.3-1.9
				c2.9,0,5.4,0.6,7.5,1.9c2.2,1.2,4,2.9,5.4,4.9V147.1z M443.9,183.5c2.4,0,4.5-0.6,6.3-1.8c1.8-1.2,3.3-2.8,4.3-4.9
				c1-2,1.6-4.3,1.6-6.7c0-2.5-0.5-4.7-1.6-6.7c-1.1-2-2.5-3.6-4.3-4.9c-1.8-1.2-3.9-1.8-6.2-1.8c-2.3,0-4.4,0.6-6.3,1.8
				c-1.9,1.2-3.4,2.8-4.6,4.9c-1.1,2-1.7,4.3-1.7,6.8s0.6,4.7,1.7,6.8c1.1,2,2.7,3.6,4.6,4.8C439.5,182.9,441.6,183.5,443.9,183.5z"
				/>
			<path d="M484.7,141.2c-1.7,0-3.1-0.5-4.2-1.6c-1.1-1.1-1.7-2.5-1.7-4.1c0-1.6,0.6-3,1.7-4.1c1.1-1.1,2.5-1.7,4.1-1.7
				c1.6,0,3,0.6,4.1,1.7c1.1,1.1,1.7,2.5,1.7,4.1c0,1.7-0.6,3-1.7,4.1C487.7,140.6,486.4,141.2,484.7,141.2z M479,147.1h11.2v46H479
				V147.1z"/>
			<path d="M543.4,164v29.1h-11.2V167c0-1.8-0.4-3.5-1.3-4.9c-0.9-1.5-2.1-2.7-3.6-3.5c-1.5-0.9-3.1-1.3-4.9-1.3s-3.5,0.4-4.9,1.3
				s-2.7,2.1-3.5,3.5c-0.9,1.5-1.3,3.1-1.3,4.9v26.1h-11.2l0-46h11.2l0,4.1c1.6-1.7,3.4-3,5.6-3.9c2.2-1,4.5-1.4,7-1.4
				c3.3,0,6.4,0.8,9.2,2.5c2.8,1.6,5,3.8,6.6,6.6C542.6,157.6,543.4,160.6,543.4,164z"/>
			<path d="M572.9,194.3c-4.2,0-8.1-1.1-11.6-3.3c-3.5-2.2-6.3-5.1-8.3-8.8c-2.1-3.7-3.1-7.7-3.1-12.2c0-3.3,0.6-6.5,1.8-9.4
				c1.2-2.9,2.8-5.5,4.9-7.7s4.5-4,7.3-5.2c2.8-1.3,5.8-1.9,8.9-1.9c3.6,0,6.9,0.8,9.9,2.3c3,1.5,5.5,3.6,7.6,6.2
				c2.1,2.6,3.6,5.6,4.6,9c1,3.4,1.2,6.9,0.6,10.6h-33.6c0.4,1.7,1.1,3.3,2.1,4.6s2.2,2.5,3.7,3.3c1.5,0.8,3.2,1.2,5.1,1.3
				c2,0,3.7-0.4,5.4-1.4c1.6-1,3-2.3,4-3.9l11.5,2.7c-1.9,4.1-4.7,7.4-8.4,10C581.6,193,577.5,194.3,572.9,194.3z M561.6,165.5h22.6
				c-0.3-1.8-1.1-3.5-2.1-5s-2.4-2.7-4-3.6c-1.6-0.9-3.3-1.3-5.2-1.3s-3.5,0.4-5.1,1.3c-1.6,0.9-2.9,2.1-4,3.5
				S562,163.6,561.6,165.5z"/>
		</g>
	</g>
	<g>
		<g>
			<path d="M279.8,116.1c-4.4,0-8.4-0.9-12.3-2.6c-3.8-1.7-7.2-4.1-10.1-7.2c-2.9-3.1-5.2-6.6-6.8-10.6c-1.6-4-2.5-8.3-2.5-12.9
				c0-4.6,0.8-9,2.5-13c1.6-4,3.9-7.6,6.8-10.6c2.9-3.1,6.3-5.4,10.1-7.2c3.8-1.7,7.9-2.6,12.3-2.6c5.2,0,10,1.2,14.4,3.6
				c4.4,2.4,8,5.6,10.9,9.6l-10,5.4c-1.8-2.2-4.1-4-6.7-5.4c-2.7-1.3-5.5-2-8.5-2c-2.8,0-5.5,0.6-8,1.7c-2.5,1.2-4.7,2.7-6.5,4.8
				c-1.9,2-3.3,4.4-4.4,7.1c-1,2.7-1.6,5.5-1.6,8.6c0,3.1,0.5,5.9,1.6,8.6c1.1,2.7,2.5,5,4.4,7.1c1.9,2,4,3.6,6.5,4.8
				c2.5,1.2,5.1,1.7,7.9,1.7c3.1,0,5.9-0.7,8.6-2c2.7-1.4,4.9-3.2,6.7-5.4l10,5.4c-2.9,4-6.5,7.2-10.9,9.6
				C289.9,114.9,285.1,116.1,279.8,116.1z"/>
			<path d="M349.9,68.9h11.2v46h-11.2l-0.5-5.7c-1.3,2.1-2.9,3.7-5,5s-4.5,1.9-7.3,1.9c-3.4,0-6.6-0.6-9.6-1.9s-5.6-3.1-7.8-5.3
				c-2.3-2.3-4-4.9-5.3-7.9c-1.3-3-1.9-6.2-1.9-9.6c0-3.3,0.6-6.4,1.8-9.2c1.2-2.9,2.9-5.4,5.1-7.6c2.2-2.2,4.7-3.9,7.5-5.1
				c2.9-1.2,5.9-1.8,9.2-1.8c3,0,5.8,0.7,8.2,2c2.4,1.3,4.5,3.1,6.1,5.2L349.9,68.9z M336.8,105.3c2.4,0,4.5-0.6,6.3-1.8
				c1.8-1.2,3.3-2.8,4.3-4.9c1-2,1.6-4.3,1.6-6.7c0-2.5-0.5-4.7-1.6-6.8c-1-2-2.5-3.7-4.3-4.9c-1.9-1.2-4-1.8-6.3-1.8
				c-2.4,0-4.5,0.6-6.5,1.8c-1.9,1.2-3.5,2.8-4.6,4.9c-1.1,2-1.7,4.3-1.7,6.8s0.6,4.7,1.7,6.8c1.2,2,2.7,3.6,4.7,4.8
				C332.4,104.7,334.5,105.3,336.8,105.3z"/>
			<path d="M405.1,45.9h11.2v69h-11.2v-5.8c-1.5,2.1-3.3,3.7-5.6,5s-4.8,1.9-7.8,1.9c-3.3,0-6.5-0.6-9.4-1.9c-2.9-1.3-5.5-3-7.7-5.2
				c-2.2-2.2-4-4.8-5.2-7.7c-1.3-2.9-1.9-6-1.9-9.4c0-3.3,0.6-6.5,1.9-9.4c1.3-2.9,3-5.5,5.2-7.7s4.8-4,7.7-5.2s6-1.9,9.4-1.9
				c2.9,0,5.5,0.6,7.8,1.9c2.2,1.3,4.1,3,5.6,5V45.9z M391.9,105.3c2.4,0,4.5-0.6,6.3-1.8c1.8-1.2,3.3-2.8,4.3-4.9
				c1-2,1.6-4.3,1.6-6.7c0-2.5-0.5-4.7-1.6-6.8c-1-2-2.5-3.7-4.3-4.9c-1.9-1.2-4-1.8-6.3-1.8s-4.5,0.6-6.5,1.8
				c-1.9,1.2-3.5,2.8-4.6,4.9c-1.2,2-1.7,4.3-1.7,6.8s0.6,4.7,1.7,6.8c1.2,2,2.7,3.6,4.7,4.8C387.5,104.7,389.6,105.3,391.9,105.3z"
				/>
			<path d="M447.6,116.1c-4.2,0-8.1-1.1-11.6-3.3c-3.5-2.2-6.3-5.1-8.3-8.8c-2.1-3.7-3.1-7.7-3.1-12.2c0-3.3,0.6-6.5,1.8-9.4
				c1.2-2.9,2.8-5.5,4.9-7.7s4.5-4,7.3-5.2c2.8-1.3,5.8-1.9,8.9-1.9c3.6,0,6.9,0.8,9.9,2.3c3,1.5,5.5,3.6,7.6,6.2
				c2.1,2.6,3.6,5.6,4.6,9c1,3.4,1.2,6.9,0.6,10.6h-33.6c0.4,1.7,1.1,3.3,2.1,4.6s2.2,2.5,3.7,3.3c1.5,0.8,3.2,1.2,5.1,1.3
				c2,0,3.7-0.4,5.4-1.4c1.6-1,3-2.3,4-3.9l11.5,2.7c-1.9,4.1-4.7,7.4-8.4,10C456.4,114.8,452.2,116.1,447.6,116.1z M436.3,87.3H459
				c-0.3-1.8-1.1-3.5-2.1-5s-2.4-2.7-4-3.6c-1.6-0.9-3.3-1.3-5.2-1.3s-3.5,0.4-5.1,1.3c-1.6,0.9-2.9,2.1-4,3.5
				S436.7,85.4,436.3,87.3z"/>
		</g>
	</g>
	<g>
		<g>
			<polygon fill="#D8193D" points="56,133 90.5,50 169.3,91.3 136.2,170 			"/>
			<polygon fill="#EF5B74" points="81.8,97.2 94.7,148.5 146.4,133.2 130.9,82.4 			"/>
			
				<ellipse transform="matrix(0.4515 -0.8923 0.8923 0.4515 -37.338 162.7185)" fill="none" stroke="#000000" stroke-width="9.6294" stroke-miterlimit="10" cx="113.7" cy="111.7" rx="47.7" ry="109.9"/>
			
				<ellipse transform="matrix(0.9595 -0.2816 0.2816 0.9595 -26.8598 36.5312)" fill="none" stroke="#000000" stroke-width="10" stroke-miterlimit="10" cx="113.7" cy="111.7" rx="26.6" ry="109.9"/>
			
				<ellipse transform="matrix(0.9608 -0.2771 0.2771 0.9608 -26.5069 35.8752)" fill="none" stroke="#000000" stroke-width="10" stroke-miterlimit="10" cx="113.7" cy="111.7" rx="109.9" ry="26.6"/>
			
				<ellipse transform="matrix(0.3854 -0.9228 0.9228 0.3854 -33.2237 173.5817)" fill="none" stroke="#000000" stroke-width="9.6294" stroke-miterlimit="10" cx="113.7" cy="111.7" rx="109.9" ry="47.7"/>
		</g>
	</g>
</g>
</svg>
